<mxfile host="app.diagrams.net" modified="2023-06-11T00:15:23.811Z" agent="Mozilla/5.0 (Windows NT 10.0; Win64; x64) AppleWebKit/537.36 (KHTML, like Gecko) Chrome/114.0.0.0 Safari/537.36 Edg/114.0.1823.43" version="21.3.7" etag="KNcyT3aKOlRTdtfGZmn9" type="github">
  <diagram name="Page-1" id="Pv0Vd-2VHEwPVATr1SNM">
    <mxGraphModel>
      <root>
        <mxCell id="0" />
        <mxCell id="1" parent="0" />
      </root>
    </mxGraphModel>
  </diagram>
</mxfile>
